<svg width="19" height="19" viewBox="0 0 19 19" fill="none" xmlns="http://www.w3.org/2000/svg">
<g id="Vector">
<path d="M9.50009 18.5909C14.5092 18.5909 18.591 14.5091 18.591 9.49997C18.591 4.49088 14.5092 0.409058 9.50009 0.409058C4.491 0.409058 0.40918 4.49088 0.40918 9.49997C0.40918 14.5091 4.491 18.5909 9.50009 18.5909ZM9.50009 1.68178C13.8092 1.68178 17.3183 5.19088 17.3183 9.49997C17.3183 13.8091 13.8092 17.3181 9.50009 17.3181C5.191 17.3181 1.68191 13.8091 1.68191 9.49997C1.68191 5.19088 5.191 1.68178 9.50009 1.68178Z" fill="#515151"/>
<path d="M10.3728 7.44542H8.62734V14.7727H10.3728V7.44542Z" fill="#515151"/>
<path d="M9.50007 6.28179C9.81825 6.28179 10.0819 6.18179 10.291 5.98179C10.5001 5.78179 10.6001 5.53633 10.6001 5.24542C10.6001 4.95451 10.491 4.69997 10.291 4.50906C10.0819 4.31815 9.81825 4.22724 9.50007 4.22724C9.18189 4.22724 8.91825 4.31815 8.70916 4.50906C8.50007 4.69997 8.40007 4.94542 8.40007 5.24542C8.40007 5.54542 8.50007 5.78179 8.70916 5.98179C8.91825 6.18179 9.18189 6.28179 9.50007 6.28179Z" fill="#515151"/>
</g>
</svg>
