<svg width="25" height="25" viewBox="0 0 25 25" fill="none" xmlns="http://www.w3.org/2000/svg">
<g id="Icon/seal-question">
<path id="Primary" d="M7.04453 9.98203C7.25547 9.77109 7.375 9.48633 7.375 9.1875V6.9375C7.375 6.62812 7.62812 6.375 7.9375 6.375H10.1875C10.4863 6.375 10.7711 6.25547 10.982 6.04453L12.8348 4.1918C12.877 4.14961 12.9367 4.125 13 4.125C13.0633 4.125 13.1195 4.14961 13.1652 4.1918L15.018 6.04453C15.2289 6.25547 15.5137 6.375 15.8125 6.375H18.0625C18.3719 6.375 18.625 6.62812 18.625 6.9375V9.1875C18.625 9.48633 18.7445 9.77109 18.9555 9.98203L20.8082 11.8348C20.8504 11.877 20.875 11.9367 20.875 12C20.875 12.0633 20.8504 12.1195 20.8082 12.1652L18.9555 14.018C18.7445 14.2289 18.625 14.5137 18.625 14.8125V17.0625C18.625 17.3719 18.3719 17.625 18.0625 17.625H15.8125C15.5137 17.625 15.2289 17.7445 15.018 17.9555L13.1652 19.8082C13.123 19.8504 13.0633 19.875 13 19.875C12.9367 19.875 12.8805 19.8504 12.8348 19.8082L10.982 17.9555C10.7711 17.7445 10.4863 17.625 10.1875 17.625H7.9375C7.62812 17.625 7.375 17.3719 7.375 17.0625V14.8125C7.375 14.5137 7.25547 14.2289 7.04453 14.018L5.1918 12.1652C5.14961 12.123 5.125 12.0633 5.125 12C5.125 11.9367 5.14961 11.8805 5.1918 11.8348L7.04453 9.98203ZM6.25 6.9375V9.1875L4.39727 11.0402C4.14414 11.2934 4 11.6414 4 12C4 12.3586 4.14414 12.7066 4.39727 12.9598L6.25 14.8125V17.0625C6.25 17.9941 7.00586 18.75 7.9375 18.75H10.1875L12.0402 20.6027C12.2934 20.8559 12.6414 21 13 21C13.3586 21 13.7066 20.8559 13.9598 20.6027L15.8125 18.75H18.0625C18.9941 18.75 19.75 17.9941 19.75 17.0625V14.8125L21.6027 12.9598C21.8559 12.7066 22 12.3586 22 12C22 11.6414 21.8559 11.2934 21.6027 11.0402L19.75 9.1875V6.9375C19.75 6.00586 18.9941 5.25 18.0625 5.25H15.8125L13.9598 3.39727C13.7066 3.14414 13.3586 3 13 3C12.6414 3 12.2934 3.14414 12.0402 3.39727L10.1875 5.25H7.9375C7.00586 5.25 6.25 6.00586 6.25 6.9375ZM9.93086 8.96953L9.92383 8.99414C9.84648 9.29297 10.0258 9.60234 10.3246 9.67969C10.6234 9.75703 10.9328 9.57773 11.0102 9.27891L11.0172 9.2543C11.1156 8.88164 11.4496 8.625 11.8328 8.625H13.8402C14.459 8.625 14.9652 9.13477 14.9652 9.76055C14.9652 10.1859 14.7262 10.5762 14.35 10.7695L12.7398 11.5922C12.55 11.6871 12.434 11.8805 12.434 12.0949V13.132C12.434 13.4414 12.6871 13.6945 12.9965 13.6945C13.3059 13.6945 13.559 13.4414 13.559 13.132V12.4395L14.8633 11.775C15.6191 11.3883 16.0902 10.6078 16.0902 9.76406C16.0902 8.52656 15.0883 7.50352 13.8402 7.50352H11.8328C10.9363 7.50352 10.1559 8.1082 9.92734 8.97305L9.93086 8.96953ZM13.8438 15.375C13.8438 15.1512 13.7549 14.9366 13.5966 14.7784C13.4384 14.6201 13.2238 14.5312 13 14.5312C12.7762 14.5312 12.5616 14.6201 12.4034 14.7784C12.2451 14.9366 12.1562 15.1512 12.1562 15.375C12.1562 15.5988 12.2451 15.8134 12.4034 15.9716C12.5616 16.1299 12.7762 16.2188 13 16.2188C13.2238 16.2188 13.4384 16.1299 13.5966 15.9716C13.7549 15.8134 13.8438 15.5988 13.8438 15.375Z" fill="#2B2B2B"/>
</g>
</svg>
