<svg width="20" height="20" viewBox="0 0 20 20" fill="none" xmlns="http://www.w3.org/2000/svg">
<g id="Icon/seal-question">
<path id="Primary" d="M5.23543 7.98562C5.40418 7.81687 5.4998 7.58906 5.4998 7.34999V5.54999C5.4998 5.30249 5.7023 5.09999 5.9498 5.09999H7.7498C7.98887 5.09999 8.21668 5.00437 8.38543 4.83562L9.86762 3.35343C9.90137 3.31968 9.94918 3.29999 9.9998 3.29999C10.0504 3.29999 10.0954 3.31968 10.132 3.35343L11.6142 4.83562C11.7829 5.00437 12.0107 5.09999 12.2498 5.09999H14.0498C14.2973 5.09999 14.4998 5.30249 14.4998 5.54999V7.34999C14.4998 7.58906 14.5954 7.81687 14.7642 7.98562L16.2464 9.46781C16.2801 9.50156 16.2998 9.54937 16.2998 9.59999C16.2998 9.65062 16.2801 9.69562 16.2464 9.73218L14.7642 11.2144C14.5954 11.3831 14.4998 11.6109 14.4998 11.85V13.65C14.4998 13.8975 14.2973 14.1 14.0498 14.1H12.2498C12.0107 14.1 11.7829 14.1956 11.6142 14.3644L10.132 15.8466C10.0982 15.8803 10.0504 15.9 9.9998 15.9C9.94918 15.9 9.90418 15.8803 9.86762 15.8466L8.38543 14.3644C8.21668 14.1956 7.98887 14.1 7.7498 14.1H5.9498C5.7023 14.1 5.4998 13.8975 5.4998 13.65V11.85C5.4998 11.6109 5.40418 11.3831 5.23543 11.2144L3.75324 9.73218C3.71949 9.69843 3.6998 9.65062 3.6998 9.59999C3.6998 9.54937 3.71949 9.50437 3.75324 9.46781L5.23543 7.98562ZM4.5998 5.54999V7.34999L3.11762 8.83218C2.91512 9.03468 2.7998 9.31312 2.7998 9.59999C2.7998 9.88687 2.91512 10.1653 3.11762 10.3678L4.5998 11.85V13.65C4.5998 14.3953 5.20449 15 5.9498 15H7.7498L9.23199 16.4822C9.43449 16.6847 9.71293 16.8 9.9998 16.8C10.2867 16.8 10.5651 16.6847 10.7676 16.4822L12.2498 15H14.0498C14.7951 15 15.3998 14.3953 15.3998 13.65V11.85L16.882 10.3678C17.0845 10.1653 17.1998 9.88687 17.1998 9.59999C17.1998 9.31312 17.0845 9.03468 16.882 8.83218L15.3998 7.34999V5.54999C15.3998 4.80468 14.7951 4.19999 14.0498 4.19999H12.2498L10.7676 2.71781C10.5651 2.51531 10.2867 2.39999 9.9998 2.39999C9.71293 2.39999 9.43449 2.51531 9.23199 2.71781L7.7498 4.19999H5.9498C5.20449 4.19999 4.5998 4.80468 4.5998 5.54999ZM7.54449 7.17562L7.53887 7.19531C7.47699 7.43437 7.62043 7.68187 7.85949 7.74374C8.09855 7.80562 8.34605 7.66218 8.40793 7.42312L8.41355 7.40343C8.4923 7.10531 8.75949 6.89999 9.06605 6.89999H10.672C11.167 6.89999 11.572 7.30781 11.572 7.80843C11.572 8.14874 11.3807 8.46093 11.0798 8.61562L9.79168 9.27374C9.6398 9.34968 9.54699 9.50437 9.54699 9.67593V10.5056C9.54699 10.7531 9.74949 10.9556 9.99699 10.9556C10.2445 10.9556 10.447 10.7531 10.447 10.5056V9.95156L11.4904 9.41999C12.0951 9.11062 12.472 8.48624 12.472 7.81124C12.472 6.82124 11.6704 6.00281 10.672 6.00281H9.06605C8.34887 6.00281 7.72449 6.48656 7.54168 7.17843L7.54449 7.17562ZM10.6748 12.3C10.6748 12.121 10.6037 11.9493 10.4771 11.8227C10.3505 11.6961 10.1788 11.625 9.9998 11.625C9.82078 11.625 9.64909 11.6961 9.52251 11.8227C9.39592 11.9493 9.3248 12.121 9.3248 12.3C9.3248 12.479 9.39592 12.6507 9.52251 12.7773C9.64909 12.9039 9.82078 12.975 9.9998 12.975C10.1788 12.975 10.3505 12.9039 10.4771 12.7773C10.6037 12.6507 10.6748 12.479 10.6748 12.3Z" fill="black"/>
</g>
</svg>
