<svg width="19" height="19" viewBox="0 0 19 19" fill="none" xmlns="http://www.w3.org/2000/svg">
<g id="Vector">
<path d="M9.49991 0.409C4.49082 0.408999 0.409002 4.49082 0.409001 9.49991C0.409001 14.509 4.49082 18.5908 9.49991 18.5908C14.509 18.5908 18.5908 14.509 18.5908 9.49991C18.5908 4.49082 14.509 0.409 9.49991 0.409ZM9.49991 17.3181C5.19082 17.3181 1.68173 13.809 1.68173 9.49991C1.68173 5.19082 5.19082 1.68173 9.49991 1.68173C13.809 1.68173 17.3181 5.19082 17.3181 9.49991C17.3181 13.809 13.809 17.3181 9.49991 17.3181Z" fill="#FF9364"/>
<path d="M8.6272 11.5545L10.3727 11.5545L10.3727 4.22718L8.6272 4.22718L8.6272 11.5545Z" fill="#FF9364"/>
<path d="M9.49993 12.7181C9.18175 12.7181 8.91811 12.8181 8.70902 13.0181C8.49993 13.2181 8.39993 13.4635 8.39993 13.7545C8.39993 14.0454 8.50902 14.2999 8.70902 14.4908C8.91811 14.6817 9.18175 14.7726 9.49993 14.7726C9.81811 14.7726 10.0817 14.6817 10.2908 14.4908C10.4999 14.2999 10.5999 14.0545 10.5999 13.7545C10.5999 13.4545 10.4999 13.2181 10.2908 13.0181C10.0817 12.8181 9.81811 12.7181 9.49993 12.7181Z" fill="#FF9364"/>
</g>
</svg>
