<svg width="248" height="55" viewBox="0 0 248 55" fill="none" xmlns="http://www.w3.org/2000/svg">
<g clip-path="url(#clip0_6_14273)">
<path d="M0 31.2799C0 20.7799 7.27 13.4399 17.7 13.4399C26.96 13.4399 33.41 18.0999 34.5 25.7199L24.76 27.6399C24.21 24.2099 21.67 22.0199 18.11 22.0199C13.38 22.0199 10.36 25.6599 10.36 31.2799C10.36 36.8999 13.45 40.5399 18.11 40.5399C21.68 40.5399 23.94 38.4799 24.63 35.3299L34.44 37.3199C33.21 44.5899 26.83 49.1199 17.7 49.1199C7.27 49.1099 0 41.7699 0 31.2799Z" fill="black"/>
<path d="M58.85 22.8399C54.32 22.8399 50 26.2699 50 36.0799V48.5599H39.92V13.9899H50V19.9599C51.58 16.2599 56.04 13.4399 60.15 13.4399C61.32 13.4399 62.89 13.6499 63.85 13.9899L63.23 23.6599C62.06 23.1099 60.42 22.8399 58.84 22.8399H58.85Z" fill="black"/>
<path d="M82.16 13.4399C94.64 13.4399 99.92 22.6999 99.92 30.3799C99.92 31.7499 99.85 33.3999 99.78 34.1499H74.95C75.91 38.3999 78.79 40.7299 83.04 40.7299C86.47 40.7299 89.01 39.1499 89.76 36.2699L99.23 38.8099C97.17 45.3299 91 49.0999 82.77 49.0999C70.84 49.0999 65.01 39.8399 65.01 31.2699C65.01 22.6999 70.22 13.4399 82.16 13.4399ZM89.16 27.0199C88.82 23.5199 86.62 20.9199 82.16 20.9199C78.52 20.9199 76.06 22.9799 75.1 27.0199H89.16Z" fill="black"/>
<path d="M103.63 31.28C103.63 20.44 109.73 13.45 119.75 13.45C123.93 13.45 127.16 14.96 129.08 17.29V0H139.16V48.56H129.08V45.13C127.3 47.6 123.8 49.11 119.89 49.11C109.74 49.11 103.63 42.11 103.63 31.28ZM121.53 40.54C126.47 40.54 129.69 36.84 129.69 31.28C129.69 25.72 126.47 22.02 121.53 22.02C116.59 22.02 113.44 25.72 113.44 31.28C113.44 36.84 116.73 40.54 121.53 40.54Z" fill="black"/>
<path d="M181.34 13.99H191.42L198.42 36.9L205.42 13.99H215.57L203.02 48.56H193.9L181.35 13.99H181.34Z" fill="black"/>
<path d="M231.54 20.9199C228.25 20.9199 225.85 22.9099 225.5 26.2699L216.72 24.6199C217.82 17.8299 224.13 13.4399 231.54 13.4399C240.94 13.4399 247.32 18.3099 247.32 28.0499V48.5599H237.58V44.1699C235.59 47.1899 231.68 49.1099 227.84 49.1099C221.12 49.1099 216.39 44.5799 216.39 38.8199C216.39 31.9599 221.4 28.2599 231.34 27.2299L237.58 26.6099V26.3999C237.58 22.9699 235.25 20.9099 231.54 20.9099V20.9199ZM230.31 41.9099C234.84 41.9099 237.51 38.2699 237.58 34.2999V33.6799L231.13 34.4299C227.7 34.7699 225.99 36.4899 225.99 38.4799C225.99 40.4699 227.5 41.9099 230.31 41.9099ZM237.58 34.0899V33.9499V34.1599V34.0899Z" fill="black"/>
<path d="M158.15 8.91992L143.95 30.4599H159.47L165.91 20.6899L158.15 8.91992Z" fill="#ADC698"/>
<path d="M162.25 30.4599H181.82L172.04 15.6199L162.25 30.4599Z" fill="#FF7433"/>
<path d="M167.62 54.4099L181.82 32.8699H166.3L159.86 42.6399L167.62 54.4099Z" fill="#508CA4"/>
<path d="M163.52 32.8699H143.95L153.73 47.7199L163.52 32.8699Z" fill="#EECD59"/>
<g clip-path="url(#clip1_6_14273)">
<path d="M0 31.2799C0 20.7799 7.27 13.4399 17.7 13.4399C26.96 13.4399 33.41 18.0999 34.5 25.7199L24.76 27.6399C24.21 24.2099 21.67 22.0199 18.11 22.0199C13.38 22.0199 10.36 25.6599 10.36 31.2799C10.36 36.8999 13.45 40.5399 18.11 40.5399C21.68 40.5399 23.94 38.4799 24.63 35.3299L34.44 37.3199C33.21 44.5899 26.83 49.1199 17.7 49.1199C7.27 49.1099 0 41.7699 0 31.2799Z" fill="black"/>
<path d="M58.85 22.8399C54.32 22.8399 50 26.2699 50 36.0799V48.5599H39.92V13.9899H50V19.9599C51.58 16.2599 56.04 13.4399 60.15 13.4399C61.32 13.4399 62.89 13.6499 63.85 13.9899L63.23 23.6599C62.06 23.1099 60.42 22.8399 58.84 22.8399H58.85Z" fill="black"/>
<path d="M82.16 13.4399C94.64 13.4399 99.92 22.6999 99.92 30.3799C99.92 31.7499 99.85 33.3999 99.78 34.1499H74.95C75.91 38.3999 78.79 40.7299 83.04 40.7299C86.47 40.7299 89.01 39.1499 89.76 36.2699L99.23 38.8099C97.17 45.3299 91 49.0999 82.77 49.0999C70.84 49.0999 65.01 39.8399 65.01 31.2699C65.01 22.6999 70.22 13.4399 82.16 13.4399ZM89.16 27.0199C88.82 23.5199 86.62 20.9199 82.16 20.9199C78.52 20.9199 76.06 22.9799 75.1 27.0199H89.16Z" fill="black"/>
<path d="M103.63 31.28C103.63 20.44 109.73 13.45 119.75 13.45C123.93 13.45 127.16 14.96 129.08 17.29V0H139.16V48.56H129.08V45.13C127.3 47.6 123.8 49.11 119.89 49.11C109.74 49.11 103.63 42.11 103.63 31.28ZM121.53 40.54C126.47 40.54 129.69 36.84 129.69 31.28C129.69 25.72 126.47 22.02 121.53 22.02C116.59 22.02 113.44 25.72 113.44 31.28C113.44 36.84 116.73 40.54 121.53 40.54Z" fill="black"/>
<path d="M181.34 13.99H191.42L198.42 36.9L205.42 13.99H215.57L203.02 48.56H193.9L181.35 13.99H181.34Z" fill="black"/>
<path d="M231.54 20.9199C228.25 20.9199 225.85 22.9099 225.5 26.2699L216.72 24.6199C217.82 17.8299 224.13 13.4399 231.54 13.4399C240.94 13.4399 247.32 18.3099 247.32 28.0499V48.5599H237.58V44.1699C235.59 47.1899 231.68 49.1099 227.84 49.1099C221.12 49.1099 216.39 44.5799 216.39 38.8199C216.39 31.9599 221.4 28.2599 231.34 27.2299L237.58 26.6099V26.3999C237.58 22.9699 235.25 20.9099 231.54 20.9099V20.9199ZM230.31 41.9099C234.84 41.9099 237.51 38.2699 237.58 34.2999V33.6799L231.13 34.4299C227.7 34.7699 225.99 36.4899 225.99 38.4799C225.99 40.4699 227.5 41.9099 230.31 41.9099ZM237.58 34.0899V33.9499V34.1599V34.0899Z" fill="black"/>
<path d="M158.15 8.91992L143.95 30.4599H159.47L165.91 20.6899L158.15 8.91992Z" fill="#FF7433"/>
<path d="M162.25 30.4599H181.82L172.04 15.6199L162.25 30.4599Z" fill="#ADC698"/>
<path d="M167.62 54.4099L181.82 32.8699H166.3L159.86 42.6399L167.62 54.4099Z" fill="#ADC698"/>
<path d="M163.52 32.8699H143.95L153.73 47.7199L163.52 32.8699Z" fill="#FF7433"/>
</g>
</g>
<defs>
<clipPath id="clip0_6_14273">
<rect width="247.32" height="54.41" fill="white"/>
</clipPath>
<clipPath id="clip1_6_14273">
<rect width="247.32" height="54.41" fill="white"/>
</clipPath>
</defs>
</svg>
