<svg width="249" height="56" viewBox="0 0 249 56" fill="none" xmlns="http://www.w3.org/2000/svg">
<g clip-path="url(#clip0_29_849)">
<path d="M0.810669 32.2463C0.810669 21.7463 8.08067 14.4062 18.5107 14.4062C27.7707 14.4062 34.2207 19.0662 35.3107 26.6862L25.5707 28.6062C25.0207 25.1762 22.4807 22.9863 18.9207 22.9863C14.1907 22.9863 11.1707 26.6263 11.1707 32.2463C11.1707 37.8662 14.2607 41.5063 18.9207 41.5063C22.4907 41.5063 24.7507 39.4463 25.4407 36.2963L35.2507 38.2863C34.0207 45.5563 27.6407 50.0863 18.5107 50.0863C8.08067 50.0763 0.810669 42.7362 0.810669 32.2463Z" fill="white"/>
<path d="M59.6607 23.8063C55.1307 23.8063 50.8107 27.2363 50.8107 37.0463V49.5263H40.7307V14.9563H50.8107V20.9262C52.3907 17.2262 56.8507 14.4062 60.9607 14.4062C62.1307 14.4062 63.7007 14.6163 64.6607 14.9563L64.0407 24.6263C62.8707 24.0763 61.2307 23.8063 59.6507 23.8063H59.6607Z" fill="white"/>
<path d="M82.9707 14.4062C95.4507 14.4062 100.731 23.6662 100.731 31.3462C100.731 32.7162 100.661 34.3663 100.591 35.1163H75.7607C76.7207 39.3663 79.6007 41.6963 83.8507 41.6963C87.2807 41.6963 89.8207 40.1163 90.5707 37.2363L100.041 39.7763C97.9807 46.2963 91.8107 50.0662 83.5807 50.0662C71.6507 50.0662 65.8207 40.8063 65.8207 32.2363C65.8207 23.6663 71.0307 14.4062 82.9707 14.4062ZM89.9707 27.9863C89.6307 24.4863 87.4307 21.8863 82.9707 21.8863C79.3307 21.8863 76.8707 23.9463 75.9107 27.9863H89.9707Z" fill="white"/>
<path d="M104.441 32.2462C104.441 21.4062 110.541 14.4162 120.561 14.4162C124.741 14.4162 127.971 15.9262 129.891 18.2562V0.966187H139.971V49.5262H129.891V46.0962C128.111 48.5662 124.611 50.0762 120.701 50.0762C110.551 50.0762 104.441 43.0762 104.441 32.2462ZM122.341 41.5062C127.281 41.5062 130.501 37.8062 130.501 32.2462C130.501 26.6862 127.281 22.9862 122.341 22.9862C117.401 22.9862 114.251 26.6862 114.251 32.2462C114.251 37.8062 117.541 41.5062 122.341 41.5062Z" fill="white"/>
<path d="M182.151 14.9563H192.231L199.231 37.8663L206.231 14.9563H216.381L203.831 49.5263H194.711L182.161 14.9563H182.151Z" fill="white"/>
<path d="M232.351 21.8863C229.061 21.8863 226.661 23.8763 226.311 27.2363L217.531 25.5863C218.631 18.7963 224.941 14.4062 232.351 14.4062C241.751 14.4062 248.131 19.2762 248.131 29.0162V49.5263H238.391V45.1362C236.401 48.1562 232.491 50.0763 228.651 50.0763C221.931 50.0763 217.201 45.5463 217.201 39.7863C217.201 32.9263 222.211 29.2262 232.151 28.1962L238.391 27.5763V27.3663C238.391 23.9362 236.061 21.8763 232.351 21.8763V21.8863ZM231.121 42.8763C235.651 42.8763 238.321 39.2362 238.391 35.2663V34.6463L231.941 35.3963C228.511 35.7363 226.801 37.4563 226.801 39.4463C226.801 41.4363 228.311 42.8763 231.121 42.8763ZM238.391 35.0563V34.9163V35.1263V35.0563Z" fill="white"/>
<path d="M158.961 9.88623L144.761 31.4262H160.281L166.721 21.6562L158.961 9.88623Z" fill="#FF7433"/>
<path d="M163.061 31.4262H182.631L172.851 16.5862L163.061 31.4262Z" fill="#ADC698"/>
<path d="M168.431 55.3762L182.631 33.8362H167.111L160.671 43.6062L168.431 55.3762Z" fill="#ADC698"/>
<path d="M164.331 33.8362H144.761L154.541 48.6862L164.331 33.8362Z" fill="#FF7433"/>
</g>
<defs>
<clipPath id="clip0_29_849">
<rect width="247.32" height="54.41" fill="white" transform="translate(0.810669 0.966187)"/>
</clipPath>
</defs>
</svg>
