<svg width="662" height="127" viewBox="0 0 662 127" fill="none" xmlns="http://www.w3.org/2000/svg">
<g clip-path="url(#clip0_8202_8159)">
<path d="M154.683 59.0698C142.98 59.0698 131.779 67.9302 131.779 93.3007V125.582H105.684V36.1802H131.779V51.627C135.858 42.0577 147.413 34.7626 158.053 34.7626C161.067 34.7626 165.145 35.2942 167.628 36.1802L166.032 61.1963C163.018 59.7786 158.762 59.0698 154.683 59.0698Z" fill="#004059"/>
<path d="M216.805 34.7626C249.107 34.7626 262.791 58.7154 262.791 78.5923C262.791 82.1365 262.613 86.3895 262.436 88.3389H198.186C200.669 99.3258 208.116 105.38 219.14 105.38C228.006 105.38 234.596 101.305 236.547 93.8619L261.047 100.419C255.727 117.283 239.739 127.03 218.431 127.03C187.547 127.03 172.445 103.077 172.445 80.8961C172.445 58.7154 185.922 34.7626 216.835 34.7626H216.805ZM234.892 69.8795C234.005 60.8419 228.331 54.0784 216.776 54.0784C207.378 54.0784 200.965 59.3947 198.482 69.8795H234.862H234.892Z" fill="#004059"/>
<path d="M274.139 80.896C274.139 52.8674 289.95 34.7626 315.839 34.7626C326.655 34.7626 335.019 38.6612 339.984 44.6863V0H366.08V125.582H339.984V116.722C335.374 123.101 326.301 127 316.193 127C289.92 127 274.139 108.895 274.139 80.8665V80.896ZM320.479 104.849C333.246 104.849 341.609 95.2795 341.609 80.896C341.609 66.5126 333.275 56.9433 320.479 56.9433C307.682 56.9433 299.525 66.5126 299.525 80.896C299.525 95.2795 308.037 104.849 320.479 104.849Z" fill="#004059"/>
<path d="M381.892 80.8961C381.892 54.2851 401.427 34.7626 429.118 34.7626C456.81 34.7626 476.345 54.2851 476.345 80.8961C476.345 107.507 456.455 127.03 429.118 127.03C401.781 127.03 381.892 107.507 381.892 80.8961ZM429.118 104.849C441.708 104.849 450.249 95.1023 450.249 80.8961C450.249 66.6898 441.738 56.9433 429.118 56.9433C416.499 56.9433 407.81 66.6898 407.81 80.8961C407.81 95.1023 416.321 104.849 429.118 104.849Z" fill="#004059"/>
<path d="M478.798 36.1802H504.894L523.01 95.4272L541.126 36.1802H567.399L534.92 125.582H511.307L478.827 36.1802H478.798Z" fill="#004059"/>
<path d="M662 125.582H635.904V116.722C631.294 123.101 622.221 127 612.113 127C585.84 127 570.059 108.895 570.059 80.8665C570.059 52.8379 585.87 34.733 611.759 34.733C622.575 34.733 630.939 38.6316 635.904 44.6568V36.1507H662V125.553V125.582ZM616.369 104.849C629.136 104.849 637.5 95.2795 637.5 80.8961C637.5 66.5126 629.166 56.9433 616.369 56.9433C603.572 56.9433 595.416 66.5126 595.416 80.8961C595.416 95.2795 603.927 104.849 616.369 104.849Z" fill="#004059"/>
<path d="M80.3857 90.997L77.7554 93.6256L69.1258 85.0309L66.2296 87.9253L58.0432 79.7442L55.5312 82.2546L49.5022 76.2591L37.6217 88.1321L35.5825 86.1237L28.4305 93.2711C25.357 89.1067 23.5246 83.9972 23.5246 78.4446C23.5246 64.5632 34.8437 53.2809 48.7338 53.2809C57.3635 53.2809 65.2838 57.6225 69.9533 64.8586L71.0468 66.5421L90.8477 53.8716L89.7542 52.1881C80.7404 38.1591 65.3725 29.7711 48.7043 29.7711C21.8696 29.7416 0 51.5384 0 78.3856C0 105.233 21.8696 127.03 48.7634 127.03C64.1608 127.03 79.9129 118.73 87.6263 107.743C91.1432 102.456 90.6999 101.157 90.6999 101.157L80.3562 90.997H80.3857ZM69.1258 87.8958L74.5932 93.3598H72.7904V96.7563L69.1258 93.0939V87.8958ZM24.0566 100.537L18.4119 102.634L22.1356 98.9418V95.2205L29.5831 102.663L24.0566 100.566V100.537ZM40.6362 97.5242H35.5825L37.3853 95.7225L35.5825 88.9591L49.5022 102.84L40.6362 97.5242ZM64.4268 99.5916L55.9449 101.866L49.5022 95.3681H57.0679L45.0692 89.9632L54.2604 88.3979L45.8376 85.4739L51.4528 83.9677L49.4727 79.1239L75.4798 105.056L64.3972 99.6211L64.4268 99.5916ZM85.4098 100.684H80.3857V96.4314H77.8146L80.3857 93.8618L89.6655 103.136L85.4098 100.684Z" fill="#004059"/>
</g>
<defs>
<clipPath id="clip0_8202_8159">
<rect width="662" height="127" fill="white"/>
</clipPath>
</defs>
</svg>
