<?xml version="1.0" encoding="UTF-8"?>
<svg id="Layer_2" xmlns="http://www.w3.org/2000/svg" xmlns:xlink="http://www.w3.org/1999/xlink" viewBox="0 0 816.23 182.4">
  <defs>
    <style>
      .cls-1 {
        fill: url(#linear-gradient);
      }

      .cls-2 {
        fill: none;
        stroke: #FFF;
        stroke-miterlimit: 10;
        stroke-width: 3px;
      }

      .cls-3 {
        fill: #fff;
      }
    </style>
    <linearGradient id="linear-gradient" x1="5.77" y1="-2836.59" x2="159.36" y2="-2698.06" gradientTransform="translate(0 -2668.32) scale(1 -1)" gradientUnits="userSpaceOnUse">
      <stop offset="0" stop-color="#0f8fa9"/>
      <stop offset=".6" stop-color="#592941"/>
      <stop offset="1" stop-color="#d31b0d"/>
    </linearGradient>
  </defs>
  <g id="Layer_1-2" data-name="Layer_1">
    <g>
      <path class="cls-3" d="M268.66,126.82h6.1c4.9,0,9.27,2.81,9.27,8.93s-4.37,8.93-9.27,8.93h-6.1v-17.87ZM274.32,141.22c2.88,0,5.64-1.33,5.64-5.46s-2.76-5.49-5.64-5.49h-1.71v10.95h1.71Z"/>
      <path class="cls-3" d="M291.56,126.82h12.28v3.45h-8.25v3.27h6.54v3.47h-6.54v4.21h8.53v3.47h-12.56v-17.87Z"/>
      <path class="cls-3" class="cls-3" d="M310.2,126.82h4.11l4.21,13.02,4.24-13.02h4.11l-6.41,17.87h-3.85l-6.41-17.87Z"/>
      <path class="cls-3" d="M333.71,126.82h12.28v3.45h-8.25v3.27h6.54v3.47h-6.54v4.21h8.53v3.47h-12.56v-17.87Z"/>
      <path class="cls-3" d="M353.8,126.82h4.03v14.4h8.02v3.47h-12.05v-17.87Z"/>
      <path class="cls-3" d="M372.08,135.76c0-5.26,3.88-9.14,9.19-9.14s9.14,3.88,9.14,9.14-3.88,9.14-9.14,9.14-9.19-3.88-9.19-9.14ZM381.25,141.42c2.99,0,5.13-2.4,5.13-5.67s-2.14-5.69-5.13-5.69-5.13,2.42-5.13,5.69,2.12,5.67,5.13,5.67Z"/>
      <path class="cls-3" d="M397.97,126.82h7.4c3.7,0,6.08,2.2,6.08,5.59s-2.37,5.59-6.08,5.59h-3.37v6.69h-4.03v-17.87ZM404.96,134.56c1.53,0,2.45-.82,2.45-2.14s-.92-2.14-2.45-2.14h-2.96v4.29h2.96Z"/>
      <path class="cls-3" d="M418.6,126.82h12.28v3.45h-8.25v3.27h6.54v3.47h-6.54v4.21h8.53v3.47h-12.56v-17.87Z"/>
      <path class="cls-3" d="M438.69,126.82h7.12c3.52,0,5.82,2.14,5.82,5.44,0,1.94-.94,3.65-2.58,4.59l4.57,7.84h-4.72l-3.88-6.99h-2.25v6.99h-4.03l-.05-17.87ZM445.12,134.25c1.58,0,2.48-.74,2.48-1.99s-.89-1.99-2.48-1.99h-2.35v3.98h2.35Z"/>
      <path class="cls-3" d="M459.65,139.2l3.52-1.05c.23,1.99,1.79,3.32,3.55,3.32,1.61,0,2.65-.77,2.65-1.89,0-3.37-9.16-1.38-9.16-7.94,0-2.94,2.81-5.03,6.31-5.03s6.23,1.84,6.84,4.57l-3.6,1.51c-.36-1.61-1.56-2.65-3.24-2.65-1.4,0-2.27.59-2.27,1.58,0,2.83,9.19.56,9.19,7.86,0,3.24-2.76,5.41-6.87,5.41-3.57,0-6.59-2.42-6.92-5.69Z"/>
    </g>
    <path class="cls-1" d="M0,1.68v179.04c0,.93.75,1.68,1.68,1.68h179.07c.93,0,1.68-.75,1.68-1.68V1.68c0-.93-.75-1.68-1.68-1.68H1.68C.75-.03,0,.75,0,1.68ZM143.56,144.69H38.87c-.64,0-1.13-.52-1.13-1.13V38.84c0-.64.52-1.13,1.13-1.13h104.73c.64,0,1.13.52,1.13,1.13v104.73c0,.64-.52,1.13-1.16,1.13Z"/>
    <rect class="cls-2" x="237.77" y="116.31" width="265.69" height="38.5" rx="6.29" ry="6.29"/>
    <g>
      <path class="cls-3" d="M237.79,22.1c0-.34.28-.62.62-.62h30.5c15.56,0,25.53,9.23,25.53,23.5s-9.99,23.5-25.53,23.5h-13.56c-.34,0-.62.28-.62.62v26.89c0,.34-.28.62-.62.62h-15.72c-.34,0-.62-.28-.62-.62V22.1h.02ZM267.19,54.01c6.44,0,10.31-3.43,10.31-9s-3.87-9-10.31-9h-11.83c-.34,0-.62.28-.62.62v16.81c0,.34.28.62.62.62h11.83v-.04Z"/>
      <path class="cls-3" d="M346.37,96.6h-14.38c-.36,0-.64-.28-.64-.64v-5.44c0-.36-.44-.5-.66-.22-2.53,3.13-6.26,5.56-10.77,6.6-12.9,2.97-25.03-7.44-25.03-20.66v-33.07c0-.36.28-.64.64-.64h14.48c.36,0,.64.28.64.64v30.46c0,5.9,3.65,9.87,9.23,9.87,7.52,0,11.49-6.12,11.49-17.29v-23.06c0-.36.28-.64.64-.64h14.38c.36,0,.64.28.64.64v52.81c-.02.36-.3.64-.66.64Z"/>
      <path class="cls-3" d="M366.54,92.15v3.85c0,.34-.28.62-.62.62h-14.54c-.34,0-.62-.28-.62-.62V21.26c0-.34.28-.62.62-.62h14.54c.34,0,.62.28.62.62v25.59c0,.28.34.42.54.2,3.07-3.29,7.98-5.39,14.06-5.39,15.66,0,25.33,10.95,25.33,27.9s-9.67,27.9-25.55,27.9c-5.74,0-10.91-2.09-13.82-5.52-.2-.2-.56-.08-.56.22ZM391.01,69.57c0-8.68-5.03-14.48-12.65-14.48s-12.78,5.8-12.78,14.48,5.05,14.48,12.78,14.48c7.62,0,12.65-5.8,12.65-14.48Z"/>
      <path class="cls-3" d="M410.02,20.63h14.68c.3,0,.54.24.54.54v74.89c0,.3-.24.54-.54.54h-14.68c-.3,0-.54-.24-.54-.54V21.18c-.02-.3.22-.54.54-.54Z"/>
      <path class="cls-3" d="M447.35,21.08v14.24c0,.24-.2.44-.44.44h-15.74c-.24,0-.44-.2-.44-.44v-14.24c0-.24.2-.44.44-.44h15.74c.24,0,.44.2.44.44ZM431.48,42.54h14.88c.24,0,.44.2.44.44v53.19c0,.24-.2.44-.44.44h-14.88c-.24,0-.44-.2-.44-.44v-53.19c0-.24.2-.44.44-.44Z"/>
      <path class="cls-3" d="M449.91,69.57c0-16.43,11.37-27.9,27.68-27.9,14.3,0,24.31,7.12,26.21,18.75.04.26-.12.5-.38.54l-14.34,2.83c-.26.04-.48-.12-.54-.36-1-5.09-4.91-8.34-10.33-8.34-7.4,0-12.13,5.7-12.13,14.48s4.83,14.48,12.13,14.48c5.41,0,8.9-3.03,10.09-7.72.06-.24.28-.4.54-.34l14.46,2.93c.26.06.42.3.38.56-2.13,11.11-12.01,17.99-26.09,17.99-16.31,0-27.68-11.47-27.68-27.9Z"/>
    </g>
    <g>
      <path class="cls-3" d="M506.43,73.08l13.48-4.01c.4-.12.78.14.86.56,1.26,7.92,7.62,13.16,14.78,13.16,6.76,0,11.15-3.21,11.15-7.92,0-14.14-38.47-5.78-38.47-33.31,0-12.31,11.79-21.1,26.47-21.1s25.75,7.46,28.58,18.59c.08.32-.1.68-.4.8l-13.84,5.8c-.38.16-.8-.06-.9-.46-1.7-6.32-6.62-10.39-13.42-10.39-5.9,0-9.53,2.47-9.53,6.64,0,11.89,38.57,2.37,38.57,32.99,0,13.6-11.57,22.72-28.82,22.72-14.78,0-27.28-9.89-28.98-23.3-.06-.34.14-.66.46-.76Z"/>
      <path class="cls-3" d="M604.48,115.2v-22.38c0-.26-.3-.38-.5-.2-2.95,2.89-7.76,4.51-13.34,4.51-15.42,0-25.93-10.93-25.93-27.86s9.65-27.86,24.65-27.86c6.48,0,11.53,2.21,14.6,5.62.18.2.5.08.5-.18v-3.99c0-.32.26-.58.58-.58h14.58c.32,0,.58.26.58.58v72.32c0,.32-.26.58-.58.58h-14.58c-.3.02-.56-.24-.56-.56ZM605.44,69.29c0-8.68-5.03-14.46-12.76-14.46s-12.63,5.78-12.63,14.46,5.03,14.46,12.63,14.46,12.76-5.78,12.76-14.46Z"/>
      <path class="cls-3" d="M674.03,96.28h-14.34c-.36,0-.64-.28-.64-.64v-5.58c0-.3-.38-.44-.58-.2-2.53,3.19-6.28,5.66-10.85,6.7-12.86,2.97-24.99-7.42-24.99-20.64v-32.99c0-.36.28-.64.64-.64h14.46c.36,0,.64.28.64.64v30.42c0,5.9,3.65,9.87,9.21,9.87,7.5,0,11.47-6.12,11.47-17.25v-23.04c0-.36.28-.64.64-.64h14.34c.36,0,.64.28.64.64v52.71c0,.36-.28.64-.64.64Z"/>
      <path class="cls-3" d="M724.81,64.26v31.63c0,.22-.18.4-.4.4h-14.4c-.22,0-.4-.18-.4-.4v-5.9c0-.18-.2-.24-.32-.1-3.19,4.45-9.11,7.26-14.9,7.26-10.51,0-17.89-7.08-17.89-16.06,0-10.71,7.82-16.51,23.36-18.11l9.75-.96v-.34c0-5.35-3.65-8.56-9.43-8.56-4.99,0-8.68,2.95-9.39,7.94-.04.22-.24.38-.46.34l-12.9-2.43c-.22-.04-.38-.26-.34-.48,1.91-10.37,11.65-17.05,23.06-17.05,14.68,0,24.65,7.6,24.65,22.82ZM709.59,73.9v-.84l-10.07,1.18c-5.35.54-8.04,3.21-8.04,6.32s2.37,5.35,6.76,5.35c7.08-.02,11.25-5.7,11.35-12.01Z"/>
      <path class="cls-3" d="M757.38,56.11c-7.08,0-13.82,5.35-13.82,20.68v19.09c0,.22-.18.42-.42.42h-14.92c-.22,0-.42-.18-.42-.42v-53.19c0-.22.18-.42.42-.42h14.92c.22,0,.42.18.42.42v8.1c0,.2.26.26.34.08,2.71-5.41,9.37-9.45,15.52-9.45,1.7,0,3.97.28,5.5.76.18.06.3.24.28.42l-.9,14.2c-.02.28-.3.46-.56.34-1.78-.7-4.11-1.04-6.36-1.04Z"/>
      <path class="cls-3" d="M815.62,73.78h-37.94c-.24,0-.4.22-.36.46,1.6,6.36,6.04,9.83,12.53,9.83,5.19,0,9.09-2.33,10.39-6.58.06-.22.28-.34.5-.28l13.96,3.75c.24.06.38.32.3.56-3.35,9.91-12.9,15.64-25.57,15.64-18.65,0-27.76-14.46-27.76-27.86s8.14-27.86,26.79-27.86,27.76,14.46,27.76,26.47c0,1.95-.08,4.23-.18,5.52-.02.18-.22.34-.42.34ZM799,62.65c.22,0,.38-.2.36-.4-.66-5.25-4.09-9.13-10.89-9.13-5.54,0-9.35,3.07-10.93,9.09-.06.22.12.46.34.46h21.12v-.02Z"/>
    </g>
  </g>
</svg>
