<svg width="32" height="32" viewBox="0 0 32 32" fill="none" xmlns="http://www.w3.org/2000/svg">
<path fill-rule="evenodd" clip-rule="evenodd" d="M4.62149 7H27.4724C28.913 7 30.0864 8.21425 30.0864 9.70517V18.7275C30.0864 20.2185 28.913 21.4327 27.4724 21.4327H19.2737L20.3951 24.2839L15.4417 21.4327H4.61407C3.17336 21.4327 2 20.2185 2 18.7275V9.70517C2 8.21425 3.17336 7 4.62149 7Z" fill="#7F54B3"/>
<path d="M3.08439 8.60456C3.26908 8.3498 3.53841 8.19169 3.8308 8.18291C4.43099 8.139 4.77725 8.46401 4.86959 9.15795C5.23895 11.9864 5.63906 14.3932 6.06226 16.3696L8.6708 10.7127C8.90934 10.2032 9.20173 9.93093 9.5634 9.9046C10.0866 9.86068 10.4098 10.2384 10.5406 11.0465C10.7869 12.6277 11.1639 14.1824 11.664 15.6845C11.9795 12.2412 12.5028 9.74649 13.2338 8.20928C13.38 7.85791 13.6801 7.62952 14.0186 7.61197C14.1526 7.59876 14.2876 7.61603 14.4157 7.66278C14.5439 7.70952 14.6626 7.7848 14.765 7.88427C14.9805 8.06872 15.1113 8.35861 15.1267 8.66603C15.1421 8.89442 15.1036 9.12281 15.0113 9.31607C14.5496 10.2999 14.1648 11.9337 13.8648 14.2176C13.5723 16.4224 13.4569 18.1528 13.5339 19.3914C13.5647 19.6988 13.5108 20.0062 13.3954 20.2785C13.28 20.5596 13.0337 20.7529 12.7644 20.7705C12.4489 20.7968 12.1411 20.6299 11.8257 20.2698C10.7176 18.9785 9.8404 17.0548 9.19404 14.4986C8.43226 16.2379 7.85515 17.5467 7.4781 18.4075C6.77788 19.9448 6.1777 20.7265 5.68525 20.7705C5.36204 20.7968 5.08503 20.4894 4.8619 19.8393C4.25399 18.065 3.59993 14.6304 2.89973 9.53565C2.83816 9.20187 2.90741 8.86809 3.08439 8.60456ZM21.1902 10.7323C20.7901 9.91533 20.0976 9.33557 19.2896 9.15991C19.0742 9.1072 18.8587 9.08085 18.6433 9.08085C17.5045 9.08085 16.5734 9.75722 15.8501 11.11C15.2345 12.2607 14.9113 13.5871 14.9267 14.931C14.9267 15.9763 15.1191 16.8723 15.4961 17.6189C15.8963 18.4359 16.5888 19.0156 17.3967 19.1913C17.6122 19.244 17.8276 19.2703 18.0431 19.2703C19.1896 19.2703 20.1207 18.594 20.8363 17.2412C21.4519 16.0817 21.775 14.7554 21.7596 13.3938C21.7596 12.3485 21.5673 11.4613 21.1902 10.7323ZM19.6897 14.5006C19.5282 15.3878 19.2281 16.0554 18.7818 16.5121C18.4355 16.8723 18.1123 17.0128 17.8199 16.9513C17.5275 16.8898 17.2967 16.5912 17.1197 16.0729C16.9889 15.6777 16.9119 15.2648 16.9119 14.8344C16.9119 14.5006 16.9427 14.1668 16.9966 13.8418C17.112 13.2621 17.3198 12.7174 17.6276 12.2255C18.02 11.5667 18.4355 11.2857 18.8664 11.391C19.1588 11.4613 19.3896 11.7512 19.5667 12.2695C19.6974 12.6648 19.7744 13.0776 19.7744 13.4992C19.7744 13.833 19.7513 14.1668 19.6897 14.5006ZM28.6385 10.7323C28.2386 9.91533 27.5461 9.33557 26.7381 9.15991C26.5227 9.10721 26.3073 9.08085 26.0916 9.08085C24.9531 9.08085 24.0218 9.75722 23.2985 11.11C22.683 12.2607 22.3598 13.5871 22.3752 14.931C22.3752 15.9763 22.5675 16.8723 22.9446 17.6189C23.3447 18.4359 24.0374 19.0156 24.8451 19.1913C25.0607 19.244 25.2761 19.2703 25.4915 19.2703C26.6382 19.2703 27.5691 18.594 28.2847 17.2412C28.9003 16.0817 29.2234 14.7554 29.2081 13.3938C29.2081 12.3485 29.0158 11.4613 28.6385 10.7323ZM27.1383 14.5006C26.9765 15.3878 26.6764 16.0554 26.2301 16.5121C25.884 16.8723 25.5609 17.0128 25.2683 16.9513C24.9761 16.8899 24.7451 16.5912 24.568 16.0729C24.4373 15.6777 24.3604 15.2648 24.3604 14.8344C24.3604 14.5006 24.3913 14.1668 24.4451 13.8418C24.5606 13.2621 24.7682 12.7174 25.076 12.2255C25.4685 11.5667 25.884 11.2857 26.3148 11.391C26.6073 11.4613 26.838 11.7512 27.0151 12.2695C27.1458 12.6648 27.223 13.0776 27.223 13.4992C27.223 13.833 27.1996 14.1668 27.1383 14.5006Z" fill="white"/>
</svg>
