<svg width="32" height="32" viewBox="0 0 32 32" fill="none" xmlns="http://www.w3.org/2000/svg">
<path d="M4 4H28V28H4V4ZM21.766 14.92C20.842 15.013 19.9255 15.475 19.4185 16.273C18.9625 16.963 18.8785 17.8405 19.0375 18.6385C19.1575 19.2805 19.5115 19.8685 20.0065 20.2885C20.746 20.9395 21.6925 21.2605 22.576 21.6595C22.924 21.8245 23.2915 21.9805 23.5735 22.2535C23.7262 22.4065 23.8275 22.6031 23.8635 22.8162C23.8995 23.0293 23.8684 23.2484 23.7745 23.443C23.614 23.758 23.29 23.953 22.9585 24.0415C22.462 24.169 21.9235 24.1405 21.4435 23.9635C20.8645 23.749 20.4355 23.2675 20.1235 22.7515L18.289 23.815C18.4915 24.208 18.7525 24.574 19.069 24.883C19.7065 25.516 20.5615 25.9045 21.4435 26.044C22.2364 26.1754 23.0482 26.1375 23.8255 25.933C24.5725 25.723 25.2805 25.2835 25.693 24.616C26.161 23.8795 26.2195 22.951 26.0455 22.114C25.9041 21.4911 25.5576 20.9338 25.0615 20.5315C24.3415 19.924 23.4535 19.5715 22.5985 19.2025C22.2205 19.033 21.826 18.874 21.511 18.5995C21.0835 18.2305 21.07 17.4715 21.511 17.1085C21.856 16.8205 22.351 16.8115 22.765 16.9285C23.206 17.056 23.5 17.44 23.7175 17.824L25.4725 16.6975C25.1485 16.1245 24.7 15.6055 24.112 15.295C23.3965 14.917 22.5595 14.842 21.766 14.92ZM14.815 15.019C14.816 17.597 14.8155 20.1745 14.8135 22.7515C14.806 23.1715 14.7355 23.6665 14.362 23.9215C14.017 24.1345 13.5775 24.1465 13.1965 24.0445C12.6805 23.887 12.406 23.383 12.154 22.9465L10.3195 24.0565C10.5745 24.5965 10.9495 25.0855 11.4355 25.4365C12.0715 25.909 12.8725 26.1115 13.6555 26.1145C14.446 26.122 15.271 25.963 15.913 25.4785C16.4665 25.072 16.816 24.4375 16.96 23.7745C17.101 23.1775 17.065 22.5595 17.0695 21.952V15.019H14.815Z" fill="#F7DF1E"/>
<path d="M21.766 14.92C22.5595 14.842 23.3965 14.917 24.112 15.295C24.7 15.6055 25.1485 16.1245 25.474 16.6975L23.719 17.824C23.5015 17.44 23.206 17.056 22.765 16.927C22.351 16.8115 21.856 16.8206 21.511 17.1071C21.07 17.4716 21.0835 18.2305 21.511 18.598C21.826 18.874 22.2205 19.033 22.5985 19.2025C23.4535 19.5715 24.3415 19.924 25.0615 20.5315C25.549 20.9365 25.912 21.4915 26.0455 22.114C26.2195 22.951 26.161 23.878 25.693 24.616C25.279 25.2835 24.5725 25.723 23.8255 25.933C23.0482 26.1376 22.2364 26.1754 21.4435 26.044C20.5615 25.9045 19.7065 25.5161 19.069 24.8831C18.7542 24.5705 18.4909 24.21 18.289 23.815L20.1235 22.75C20.4355 23.2675 20.8645 23.749 21.4435 23.9635C21.9235 24.139 22.462 24.169 22.9585 24.0415C23.2885 23.9515 23.614 23.7565 23.7745 23.4415C23.8692 23.2473 23.9007 23.0283 23.8646 22.8153C23.8286 22.6022 23.7268 22.4058 23.5735 22.2535C23.2915 21.9805 22.924 21.8246 22.576 21.6596C21.691 21.2605 20.746 20.9396 20.0065 20.2901C19.5055 19.8654 19.1638 19.283 19.0375 18.6386C18.8785 17.8406 18.9625 16.9645 19.4185 16.2715C19.9255 15.475 20.842 15.0115 21.766 14.92ZM14.815 15.019H17.0695V21.952C17.065 22.5595 17.101 23.1775 16.96 23.7745C16.816 24.4376 16.465 25.0705 15.913 25.4785C15.271 25.963 14.446 26.1235 13.6555 26.1145C12.8725 26.1115 12.0715 25.909 11.4355 25.438C10.9539 25.078 10.5703 24.603 10.3195 24.0565L12.154 22.9465C12.406 23.3815 12.6805 23.8871 13.195 24.0446C13.5775 24.1466 14.0185 24.1345 14.362 23.923C14.737 23.668 14.806 23.1731 14.812 22.7531L14.815 15.019Z" fill="black"/>
</svg>
