<svg width="32" height="32" viewBox="0 0 32 32" fill="none" xmlns="http://www.w3.org/2000/svg">
<path fill-rule="evenodd" clip-rule="evenodd" d="M13.4533 12.0849C12.496 13.4911 11.645 14.9669 10.9074 16.5C11.645 18.0331 12.496 19.5089 13.4533 20.9151C15.1483 21.0421 16.8503 21.0421 18.5453 20.9151C19.5018 19.508 20.3537 18.0323 21.094 16.5C20.3546 14.9678 19.5036 13.4921 18.548 12.0849C16.8531 11.9579 15.1511 11.9579 13.4561 12.0849M11.8952 12.2404C11.3091 13.1579 10.7646 14.1014 10.2636 15.0681C9.93154 14.2847 9.63752 13.4856 9.38259 12.6737C10.2122 12.4888 11.0503 12.3442 11.8939 12.2404M14.3704 10.8099C15.4572 10.7607 16.5456 10.7607 17.6323 10.8099C17.1209 10.1298 16.5768 9.4749 16.0021 8.84746C15.4568 9.44189 14.9088 10.0974 14.3704 10.8099ZM15.153 7.97249C14.2997 8.902 13.5077 9.88598 12.7818 10.9182C11.4554 11.0418 10.2012 11.2377 9.0496 11.5002C8.91733 10.9798 8.81327 10.4812 8.73743 10.0044C8.53902 8.76552 8.53347 7.72111 8.70413 6.92669C8.8734 6.13227 9.19944 5.65589 9.61013 5.4184C10.0208 5.1823 10.5952 5.13646 11.368 5.38646C12.1408 5.63645 13.0413 6.16421 14.0139 6.95446C14.3885 7.25908 14.7691 7.59842 15.153 7.97249ZM16.8498 7.97249C17.7026 8.90204 18.4941 9.88603 19.2196 10.9182C20.546 11.0418 21.8016 11.2377 22.9532 11.5002C23.0854 10.9798 23.1895 10.4812 23.2653 10.0044C23.4638 8.76552 23.4679 7.72111 23.2986 6.92669C23.128 6.13227 22.8019 5.65589 22.3913 5.4184C21.982 5.1823 21.4062 5.13646 20.6334 5.38646C19.8606 5.63645 18.9601 6.16421 17.9875 6.95446C17.612 7.25908 17.2327 7.59842 16.8498 7.97249ZM24.1339 11.8001C24.2726 11.2446 24.3836 10.7104 24.4669 10.1974C24.6792 8.87246 24.7014 7.66416 24.4891 6.67253C24.2768 5.6795 23.8134 4.83231 23.0003 4.36288C22.1873 3.89345 21.2244 3.91428 20.2588 4.22677C19.2931 4.53926 18.2608 5.16285 17.2203 6.00866C16.817 6.33643 16.41 6.69984 15.9993 7.0989C15.5905 6.70077 15.1844 6.33735 14.7811 6.00866C13.7405 5.16146 12.7069 4.53926 11.7426 4.22677C10.777 3.91428 9.8127 3.89345 8.99965 4.36288C8.188 4.83231 7.7232 5.6795 7.51231 6.67253C7.30003 7.66416 7.32085 8.87246 7.53313 10.1974C7.61637 10.7113 7.72737 11.2455 7.86611 11.8001C7.31668 11.9557 6.79917 12.1261 6.31356 12.3112C5.06209 12.7904 4.00624 13.3751 3.25286 14.0556C2.49948 14.7362 2 15.5611 2 16.5C2 17.4389 2.49948 18.2638 3.25286 18.9444C4.00624 19.6249 5.06209 20.2096 6.31356 20.6888C6.79917 20.8739 7.31715 21.0448 7.8675 21.2012C7.72691 21.7549 7.61591 22.2887 7.53451 22.8026C7.32085 24.1275 7.29865 25.3344 7.51231 26.3275C7.7232 27.3205 8.188 28.1677 8.99965 28.6371C9.81131 29.1066 10.7756 29.0857 11.7412 28.7732C12.7069 28.4607 13.7392 27.8371 14.7797 26.9913C15.184 26.6636 15.5909 26.3002 16.0007 25.9011C16.4095 26.2992 16.816 26.6626 17.2203 26.9913C18.2608 27.8385 19.2931 28.4607 20.2588 28.7732C21.2244 29.0857 22.1873 29.1066 23.0003 28.6371C23.8134 28.1677 24.2768 27.3205 24.4891 26.3275C24.7014 25.3344 24.6792 24.1275 24.4669 22.8026C24.3836 22.2887 24.2726 21.7545 24.1339 21.1999C24.6833 21.0443 25.2013 20.8739 25.6878 20.6888C26.9393 20.2096 27.9938 19.6249 28.7471 18.9444C29.5005 18.2638 30 17.4389 30 16.5C30 15.5611 29.5005 14.7362 28.7471 14.0556C27.9938 13.3751 26.9393 12.7904 25.6864 12.3112C25.2008 12.1261 24.6842 11.9557 24.1339 11.8001ZM22.6202 12.6751C21.7901 12.4897 20.9516 12.3447 20.1075 12.2404C20.6933 13.1579 21.2372 14.1014 21.7378 15.0681C22.0698 14.2847 22.3639 13.4856 22.6188 12.6737M22.437 16.5C22.9948 15.2875 23.4513 14.1015 23.8009 12.9723C24.317 13.1186 24.8003 13.2779 25.2508 13.4501C26.4218 13.8973 27.3278 14.4153 27.9299 14.9598C28.5321 15.5042 28.7818 16.0264 28.7818 16.5C28.7818 16.9736 28.5321 17.4958 27.9299 18.0402C27.3278 18.5847 26.4218 19.1027 25.2522 19.5499C24.8008 19.7221 24.317 19.8814 23.8009 20.0277C23.423 18.8235 22.9674 17.6451 22.437 16.5ZM21.7378 17.9305C21.2373 18.8977 20.6933 19.8417 20.1075 20.7596C20.9511 20.6558 21.7892 20.5111 22.6188 20.3263C22.3639 19.5144 22.0698 18.7139 21.7378 17.9305ZM22.9518 21.5012C21.8002 21.7623 20.5446 21.9596 19.2182 22.0832C18.4928 23.1154 17.7012 24.0993 16.8484 25.0289C17.2323 25.4039 17.6115 25.7432 17.9861 26.0469C18.9587 26.8386 19.8592 27.3649 20.632 27.6149C21.4048 27.8649 21.9806 27.8205 22.3899 27.583C22.8006 27.3469 23.1266 26.8691 23.2973 26.0747C23.4665 25.2803 23.4624 24.2359 23.264 22.997C23.1881 22.5202 23.0841 22.0216 22.9518 21.5012ZM15.9993 24.1539C16.546 23.5586 17.0894 22.9044 17.6296 22.1915C16.5433 22.2407 15.4553 22.2407 14.3691 22.1915C14.906 22.904 15.454 23.5595 15.9993 24.1539ZM11.8911 20.761C11.3049 19.8435 10.7605 18.9 10.2595 17.9333C9.92738 18.7167 9.63336 19.5158 9.37843 20.3277C10.208 20.5125 11.0475 20.6571 11.8911 20.761ZM9.04544 21.5012C10.197 21.7623 11.4513 21.9596 12.7777 22.0832C13.5477 23.172 14.3455 24.1609 15.1488 25.0289C14.764 25.4039 14.3848 25.7432 14.0111 26.0469C13.0371 26.8386 12.1367 27.3649 11.3639 27.6149C10.5911 27.8649 10.0166 27.8205 9.60597 27.583C9.19528 27.3455 8.86923 26.8691 8.69997 26.0747C8.52931 25.2803 8.53347 24.2359 8.73326 22.997C8.80911 22.5202 8.91271 22.0216 9.04405 21.5012M8.19355 20.0291C7.70321 19.8921 7.21941 19.7327 6.74367 19.5513C5.57267 19.1041 4.66667 18.586 4.0659 18.0416C3.46237 17.4972 3.21263 16.975 3.21263 16.5014C3.21263 16.0278 3.46237 15.5056 4.06452 14.9612C4.66667 14.4167 5.57267 13.8987 6.74367 13.4515C7.21941 13.2701 7.70321 13.1107 8.19355 12.9737C8.54318 14.1029 9.00104 15.2889 9.55741 16.5014C9.02701 17.6465 8.57143 18.8249 8.19355 20.0291ZM15.9965 14.6126C15.4961 14.6126 15.0161 14.8116 14.6623 15.1658C14.3084 15.52 14.1096 16.0004 14.1096 16.5014C14.1096 17.0023 14.3084 17.4828 14.6623 17.837C15.0161 18.1912 15.4961 18.3902 15.9965 18.3902C16.497 18.3902 16.9769 18.1912 17.3308 17.837C17.6847 17.4828 17.8835 17.0023 17.8835 16.5014C17.8835 16.0004 17.6847 15.52 17.3308 15.1658C16.9769 14.8116 16.497 14.6126 15.9965 14.6126ZM12.8956 16.5C12.8956 15.6758 13.2227 14.8854 13.8049 14.3026C14.387 13.7199 15.1767 13.3925 16 13.3925C16.8233 13.3925 17.613 13.7199 18.1951 14.3026C18.7773 14.8854 19.1044 15.6758 19.1044 16.5C19.1044 17.3242 18.7773 18.1146 18.1951 18.6974C17.613 19.2801 16.8233 19.6075 16 19.6075C15.1767 19.6075 14.387 19.2801 13.8049 18.6974C13.2227 18.1146 12.8956 17.3242 12.8956 16.5Z" fill="#61DAFB"/>
</svg>
