<svg xmlns="http://www.w3.org/2000/svg" viewBox="0 0 512 512">
  <defs>
    <linearGradient id="gradient" x1="0" x2="800" y1="0" y2="0" gradientUnits="userSpaceOnUse">
      <stop stop-color="#00788C" offset="4.43%" />
      <stop stop-color="#04CBE0" offset="98.07%" />
    </linearGradient>
  </defs>
  <path fill="url(#gradient)"
    d="M190.7 153.6L88.3 256 190.7 358.4l26.7-26.7L141.7 256l75.7-75.7-26.7-26.7zm103.9 26.7L370.3 256l-75.7 75.7 26.7 26.7L423.7 256 321.3 153.6l-26.7 26.7zM512 92.1C512 41.4 470.6 0 419.9 0H92.1C41.4 0 0 41.4 0 92.1V419.9C0 470.6 41.4 512 92.1 512H419.9c50.7 0 92.1-41.4 92.1-92.1V92.1zM479.2 419.9c0 32.8-26.5 59.3-59.3 59.3H92.1c-32.8 0-59.3-26.5-59.3-59.3V92.1c0-32.8 26.5-59.3 59.3-59.3H419.9c32.8 0 59.3 26.5 59.3 59.3V419.9z" />
</svg>