<svg xmlns="http://www.w3.org/2000/svg" viewBox="0 0 631 512">
  <path
    d="M213 102.4a102.4 102.4 0 1 0 204.8 0 102.4 102.4 0 1 0 -204.8 0zm35.2 0a67.2 67.2 0 1 1 134.5 0 67.2 67.2 0 1 1 -134.5 0zm261.1 4.2a80.5 80.5 0 1 0 0 161 80.5 80.5 0 1 0 0-161zm0 34.1a46.6 46.6 0 1 1 0 93.3 46.6 46.6 0 1 1 0-93.3zM496 303.6c-19.8 0-38.3 3.9-55 11.5c0 0-.3 .3-.5 .3C411 289 370.6 268.4 315.1 268.4s-95.6 20.3-125.3 46.9c0 0-.3-.3-.5-.3c-16.7-7.6-35.2-11.5-55-11.5C49 303.6 9.7 377.4 .8 416.2c-1.6 7 1.6 14.6 7.8 18.2c2.3 1.3 56.3 32.8 139.9 32.8c2.1 0 4.4 0 6.5 0c32.6 14.3 91 34.7 160.5 34.7s127.7-20.3 160.5-34.7c2.1 0 4.4 0 6.5 0c83.7 0 137.3-31.5 139.7-32.8c6.3-3.6 9.4-11.2 7.8-18.2c-8.9-38.8-48.2-112.6-133.7-112.6H496zM134.5 337.5c10.7 0 20.6 2.1 30.2 5c-30.2 38.3-42.7 79.2-45.3 89.4c-37.8-3.9-66.5-14.1-81.6-20.8c8.9-24 34.9-73.5 96.9-73.5h-.3zm22.2 91.7c11.5-34.4 51.9-125.4 158.4-125.4s147 91 158.7 125.4c-25 12-86 37.3-158.7 37.3s-133.7-25.3-158.4-37.3zm354.7 2.6c-2.6-10.2-15.4-51.1-45.3-89.4c9.4-2.9 19.3-5 30.2-5c61.8 0 87.8 49.5 96.9 73.5c-15.1 6.5-43.8 16.9-81.6 20.8h-.3zM121.2 267.9a80.5 80.5 0 1 0 0-161 80.5 80.5 0 1 0 0 161zm0-34.1a46.6 46.6 0 1 1 0-93.3 46.6 46.6 0 1 1 0 93.3z" />
</svg>