<svg xmlns="http://www.w3.org/2000/svg" viewBox="0 0 565 512">
  <defs>
    <linearGradient id="gradient" x1="0" x2="800" y1="0" y2="0" gradientUnits="userSpaceOnUse">
      <stop stop-color="#00788C" offset="4.43%" />
      <stop stop-color="#04CBE0" offset="98.07%" />
    </linearGradient>
  </defs>
  <path fill="url(#gradient)"
    d="M145.5 309.6c12.6-8.6 27.6-13.1 42.8-13.1H331.4c29.8 0 53.9 24.5 53.9 54.6c0 8.4-1.8 16.3-5.2 23.4h5.4l91.2-55c8-4.8 17.1-7.4 26.5-7.4h1.3c27.8 0 50.4 22.8 50.4 51c0 17.3-8.7 33.4-22.9 42.7L416.8 481.7c-17.5 11.5-38 17.7-58.8 17.7H15.4C7 499.4 0 492.4 0 483.8s6.9-15.6 15.4-15.6H357.9c14.9 0 29.5-4.4 42-12.6l115.2-75.9c5.6-3.6 8.9-9.9 8.9-16.6c0-10.9-8.8-19.8-19.6-19.8h-1.3c-3.8 0-7.4 1.1-10.7 2.9l-94.9 57.3c-2.4 1.5-5.1 2.2-7.9 2.2H246.6c-8.5 0-15.4-7-15.4-15.6s6.9-15.6 15.4-15.6h84.8c12.8 0 23.1-10.4 23.1-23.4s-10.3-23.4-23.1-23.4H188.3c-9.2 0-18 2.7-25.6 7.9l-77 51.9c-2.5 1.8-5.5 2.6-8.6 2.6H15.4C7 390.1 0 383.1 0 374.5S7 358.9 15.4 358.9h57l73-49.4zM398.3 0H156.6C131.4 0 111 19.3 111 43.2V206.5c0 23.8 20.4 43.2 45.6 43.2H398.3c25.2 0 45.6-19.3 45.6-43.2V43.2C443.9 19.3 423.5 0 398.3 0zM156.6 18.4H398.3c14.5 0 26.3 11.2 26.3 24.9V64.1H130.4V43.3c0-13.8 11.8-24.9 26.3-24.9h-.1zM398.3 231.5H156.6c-14.5 0-26.3-11.2-26.3-24.9V95H424.5V206.7c0 13.8-11.8 24.9-26.3 24.9l.1-.1zm-129.4-83H162.5v17.8H268.9V148.4zm-43 38.3H162.5v17.8h63.4V186.7z" />
</svg>