<svg xmlns="http://www.w3.org/2000/svg" viewBox="0 0 547 512">
  <path
    d="M141 326.1c12.2-8.3 26.6-12.6 41.3-12.6H320.8c28.8 0 52.1 23.7 52.1 52.8c0 8.1-1.8 15.7-5 22.6h5.2l88.2-53.2c7.7-4.6 16.6-7.2 25.6-7.2h1.2c26.9 0 48.7 22.1 48.7 49.3c0 16.7-8.4 32.2-22.2 41.3L403.3 492.5c-16.9 11.1-36.7 17.1-56.8 17.1H15.3c-8.2 0-14.9-6.8-14.9-15.1s6.7-15.1 14.9-15.1h331c14.4 0 28.5-4.2 40.6-12.2l111.4-73.4c5.4-3.5 8.6-9.6 8.6-16c0-10.6-8.5-19.1-18.9-19.1h-1.2c-3.6 0-7.2 1-10.3 2.8l-91.7 55.3c-2.3 1.4-4.9 2.2-7.6 2.2H238.8c-8.2 0-14.9-6.8-14.9-15.1s6.7-15.1 14.9-15.1h81.9c12.4 0 22.4-10.1 22.4-22.6s-10-22.6-22.4-22.6H182.4c-8.8 0-17.4 2.6-24.8 7.6L83.2 401.4c-2.4 1.7-5.3 2.5-8.3 2.5H15.3C7.1 404 .4 397.2 .4 388.9s6.7-15.1 14.9-15.1H70.5L141 326.1zM272.8 1.1c-2.6-1.5-5.7-1.5-8.3 0L142.8 70c-5.1 2.9-8.3 8.3-8.3 14.2c0 9 7.3 16.3 16.3 16.3H386.4c9 0 16.3-7.3 16.3-16.3c0-5.9-3.1-11.3-8.3-14.2L272.8 1.1zm22.4 82.7C297 80 298 75.7 298 71.2c0-16.2-13.1-29.3-29.3-29.3s-29.3 13.1-29.3 29.3c0 4.5 1 8.7 2.8 12.6H152.5L268.6 18 384.8 83.8H295.1zm-26.5 0a12.6 12.6 0 1 1 0-25.1 12.6 12.6 0 1 1 0 25.1zM168.1 184.4c-4.6 0-8.4 3.8-8.4 8.4s3.8 8.4 8.4 8.4H369.2c4.6 0 8.4-3.8 8.4-8.4s-3.8-8.4-8.4-8.4v-67H352.4v67H310.5v-67H293.8v67H243.5v-67H226.7v67H184.8v-67H168.1v67zm-12.6 33.5c-4.6 0-8.4 3.8-8.4 8.4s3.8 8.4 8.4 8.4H381.8c4.6 0 8.4-3.8 8.4-8.4s-3.8-8.4-8.4-8.4H155.5zm-12.6 33.5c-4.6 0-8.4 3.8-8.4 8.4s3.8 8.4 8.4 8.4H394.3c4.6 0 8.4-3.8 8.4-8.4s-3.8-8.4-8.4-8.4H142.9z" />
</svg>