<svg xmlns="http://www.w3.org/2000/svg" viewBox="0 0 640 512">
  <defs>
    <linearGradient id="gradient" x1="0" x2="800" y1="0" y2="0" gradientUnits="userSpaceOnUse">
      <stop stop-color="#00788C" offset="4.43%" />
      <stop stop-color="#04CBE0" offset="98.07%" />
    </linearGradient>
  </defs>
  <path fill="url(#gradient)"
    d="M0 96C0 60.7 28.7 32 64 32l448 0c35.3 0 64 28.7 64 64l0 115.2c-10.1-5.2-20.8-9.4-32-12.6l0-38.6L32 160l0 64 362.8 0c-12.9 9.1-24.5 19.9-34.6 32L32 256l0 160c0 17.7 14.3 32 32 32l275.2 0c5.9 11.4 12.9 22.2 21.1 32L64 480c-35.3 0-64-28.7-64-64L0 96zm32 0l0 32 512 0 0-32c0-17.7-14.3-32-32-32L64 64C46.3 64 32 78.3 32 96zM96 368c0-8.8 7.2-16 16-16l64 0c8.8 0 16 7.2 16 16s-7.2 16-16 16l-64 0c-8.8 0-16-7.2-16-16zm128 0c0-8.8 7.2-16 16-16l80.7 0c-.5 5.3-.7 10.6-.7 16s.2 10.7 .7 16L240 384c-8.8 0-16-7.2-16-16zm128 0c0-79.5 64.5-144 144-144s144 64.5 144 144s-64.5 144-144 144s-144-64.5-144-144zm32 0c0 61.9 50.1 112 112 112s112-50.1 112-112s-50.1-112-112-112s-112 50.1-112 112zm32 0c0-8.8 7.2-16 16-16l89.4 0-28.7-28.7c-6.2-6.2-6.2-16.4 0-22.6s16.4-6.2 22.6 0l56 56c6.2 6.2 6.2 16.4 0 22.6l-56 56c-6.2 6.2-16.4 6.2-22.6 0s-6.2-16.4 0-22.6L521.4 384 432 384c-8.8 0-16-7.2-16-16z" />
</svg>