<svg xmlns="http://www.w3.org/2000/svg" viewBox="0 0 640 640">
  <defs>
    <linearGradient id="gradient" x1="0" x2="800" y1="0" y2="0" gradientUnits="userSpaceOnUse">
      <stop stop-color="#00788C" offset="4.43%" />
      <stop stop-color="#04CBE0" offset="98.07%" />
    </linearGradient>
  </defs>
  <path fill="url(#gradient)"
d="M64 560C64 551.2 71.2 544 80 544L310.1 544C313 555.1 316.8 565.8 321.5 576L80 576C71.2 576 64 568.8 64 560zM65.3 249C61.3 235.4 66.8 220.8 78.7 213.1L302.7 69.1C313.2 62.3 326.8 62.3 337.3 69.1L561.3 213.1C573.2 220.7 578.7 235.4 574.7 249C570.7 262.6 558.2 272 544 272L512 272L512 304.7C506.7 304.3 501.4 304 496 304C490.6 304 485.3 304.2 480 304.7L480 272L400 272L400 329.7C388.5 336.3 377.8 344.1 368 352.9L368 272L272 272L272 464L306.7 464C305 474.4 304 485.1 304 496L112 496C103.2 496 96 488.8 96 480C96 471.2 103.2 464 112 464L128 464L128 272L96 272C81.8 272 69.3 262.6 65.3 249zM96 240L269.4 240C265.9 232.7 264 224.6 264 216C264 185.1 289.1 160 320 160C350.9 160 376 185.1 376 216C376 224.6 374.1 232.7 370.6 240L544 240L320 96L96 240zM160 272L160 464L240 464L240 272L160 272zM296 216C296 229.3 306.7 240 320 240C333.3 240 344 229.3 344 216C344 202.7 333.3 192 320 192C306.7 192 296 202.7 296 216zM352 496C352 416.5 416.5 352 496 352C575.5 352 640 416.5 640 496C640 575.5 575.5 640 496 640C416.5 640 352 575.5 352 496zM384 496C384 557.9 434.1 608 496 608C557.9 608 608 557.9 608 496C608 434.1 557.9 384 496 384C434.1 384 384 434.1 384 496zM426.5 504.8C422.4 498.6 423.1 490.1 428.6 484.7C434.1 479.3 442.5 478.5 448.7 482.6L451.2 484.7L478 511.4C495.7 487.1 513.3 462.9 531.1 438.6C536.3 431.5 546.3 429.9 553.4 435.1C560.5 440.3 562.1 450.3 556.9 457.4L492.9 545.4C490.1 549.2 485.9 551.6 481.2 551.9C476.5 552.2 471.9 550.6 468.6 547.3L428.6 507.3L426.5 504.8z"/>
</svg>