<svg xmlns="http://www.w3.org/2000/svg" viewBox="0 0 640 512"><path d="M0 160.8c0-11.2 6-21.5 15.8-27.1L248.1 2.1C253-.7 259-.7 263.9 2.1L496.2 133.7c9.8 5.5 15.8 15.9 15.8 27.1c0 17.2-14 31.2-31.2 31.2L256 192 31.2 192C14 192 0 178 0 160.8zM0 496c0-8.8 7.2-16 16-16l344.3 0c10 12.1 21.6 22.9 34.5 32L16 512c-8.8 0-16-7.2-16-16zm24-64c0-8.8 7.2-16 16-16l286.6 0c3.2 11.2 7.4 21.9 12.6 32L40 448c-8.8 0-16-7.2-16-16zM34.3 160l171.1 0c-3.5-7.3-5.4-15.4-5.4-24c0-30.9 25.1-56 56-56s56 25.1 56 56c0 8.6-1.9 16.7-5.4 24l171.1 0L256 34.4 34.3 160zM48 368c0-8.8 7.2-16 16-16l0-128 32 0 0 128 80 0 0-128 32 0 0 128 96 0 0-128 32 0 0 70.6c-10.3 22.3-16 47.2-16 73.4c0 5.4 .2 10.7 .7 16L64 384c-8.8 0-16-7.2-16-16zM232 136c0 13.3 10.7 24 24 24s24-10.7 24-24s-10.7-24-24-24s-24 10.7-24 24zM352 368c0-79.5 64.5-144 144-144s144 64.5 144 144s-64.5 144-144 144s-144-64.5-144-144zm32 0c0 61.9 50.1 112 112 112s112-50.1 112-112s-50.1-112-112-112s-112 50.1-112 112zm32 0c0-8.8 7.2-16 16-16l89.4 0-28.7-28.7c-6.2-6.2-6.2-16.4 0-22.6s16.4-6.2 22.6 0l56 56c6.2 6.2 6.2 16.4 0 22.6l-56 56c-6.2 6.2-16.4 6.2-22.6 0s-6.2-16.4 0-22.6L521.4 384 432 384c-8.8 0-16-7.2-16-16z"/></svg>