<svg xmlns="http://www.w3.org/2000/svg" viewBox="0 0 576 512">
  <defs>
    <linearGradient id="gradient" x1="0" x2="800" y1="0" y2="0" gradientUnits="userSpaceOnUse">
      <stop stop-color="#00788C" offset="4.43%" />
      <stop stop-color="#04CBE0" offset="98.07%" />
    </linearGradient>
  </defs>
  <path fill="url(#gradient)"
    d="M0 16C0 9.7 3.7 4 9.4 1.4S21.8-.2 26.5 4L79.3 50.1 124.7 4.7c6.2-6.2 16.4-6.2 22.6 0L192 49.4 236.7 4.7c6.2-6.2 16.4-6.2 22.6 0l45.4 45.4L357.5 4c4.7-4.2 11.4-5.3 17.1-2.7s9.4 8.3 9.4 14.6l0 182.8c-11.2 3.2-21.9 7.4-32 12.6l0-159.9L314.5 84c-6.3 5.6-15.8 5.3-21.8-.7L248 38.6 203.3 83.3c-6.2 6.2-16.4 6.2-22.6 0L136 38.6 91.3 83.3c-5.9 5.9-15.5 6.2-21.8 .7L32 51.3l0 409.4L69.5 428c6.3-5.6 15.8-5.3 21.8 .7L136 473.4l44.7-44.7c6.2-6.2 16.4-6.2 22.6 0L248 473.4l26.6-26.6c4.9 9.8 10.8 19.1 17.4 27.8l-32.7 32.7c-6.2 6.2-16.4 6.2-22.6 0L192 462.6l-44.8 44.8c-6.2 6.2-16.4 6.2-22.6 0L79.2 462 26.5 508.1c-4.7 4.1-11.4 5.1-17.1 2.5S0 502.3 0 496L0 16zM80 160c0-8.8 7.2-16 16-16l192 0c8.8 0 16 7.2 16 16s-7.2 16-16 16L96 176c-8.8 0-16-7.2-16-16zm0 96c0-8.8 7.2-16 16-16l160 0 0 32L96 272c-8.8 0-16-7.2-16-16zm0 96c0-8.8 7.2-16 16-16l160 0 0 24.4c0 .8 .1 1.5 .1 2.3c-.1 1.4-.1 2.9-.1 4.4l0 .9L96 368c-8.8 0-16-7.2-16-16zM288 240c0-8.8 7.2-16 16-16s16 7.2 16 16l0 37.5c26.4-32.6 66.7-53.5 112-53.5c79.5 0 144 64.5 144 144s-64.5 144-144 144c-45.5 0-86-21.1-112.4-54c-5.5-6.9-4.4-17 2.5-22.5s17-4.4 22.5 2.5c20.5 25.6 52 42 87.4 42c61.9 0 112-50.1 112-112s-50.1-112-112-112c-38 0-71.7 19-91.9 48l43.9 0c8.8 0 16 7.2 16 16s-7.2 16-16 16l-80 0c-8.8 0-16-7.2-16-16l0-80z" />
</svg>