<svg xmlns="http://www.w3.org/2000/svg" viewBox="0 0 604 512"><path d="M533.8 0H163.3C124.7 0 93.4 31.6 93.4 70.6V337.7c0 39 31.3 70.6 69.9 70.6H533.8c38.6 0 69.9-31.6 69.9-70.6V70.6c0-39-31.3-70.6-69.9-70.6zM163.3 30.1H533.8c22.3 0 40.3 18.3 40.3 40.7v34.1h-451V70.8c0-22.5 18.1-40.7 40.3-40.7h-.2zM533.8 378.4H163.3c-22.3 0-40.3-18.3-40.3-40.7V155.4H574V337.9c0 22.5-18.1 40.7-40.3 40.7l.2-.2zM335.4 242.6H172.3v29.2H335.4V242.6zm-65.9 62.6H172.3v29.2h97.2V305.2zM29.8 87.7l0 309.4c0 40.7 33 73.7 73.7 73.7l412.6 0 0 29.5-412.6 0C46.5 500.3 .3 454.1 .3 397.1L.3 87.7l29.5 0z"/></svg>