<svg xmlns="http://www.w3.org/2000/svg" viewBox="0 0 512 512">
  <defs>
    <linearGradient id="gradient" x1="0" x2="800" y1="0" y2="0" gradientUnits="userSpaceOnUse">
      <stop stop-color="#00788C" offset="4.43%" />
      <stop stop-color="#04CBE0" offset="98.07%" />
    </linearGradient>
  </defs>
  <path fill="url(#gradient)"
    d="M41.8 200.5c22.9-94.4 108-164.6 209.4-164.6c79.8 0 149.4 43.3 186.7 107.8H376.9c-9.9 0-18 8.1-18 18s8.1 18 18 18H484.7c9.9 0 18-8.1 18-18V53.9c0-9.9-8.1-18-18-18s-18 8.1-18 18v68C422.7 48.8 342.7 0 251.2 0C131.8 0 31.8 83.3 6.2 194.9c-2.5 10.8 6.1 20.7 17.2 20.7c8.9 0 16.4-6.4 18.5-15h-.1zm418.9 102c-22.9 94.3-108 164.4-209.4 164.4c-79.8 0-149.4-43.3-186.7-107.8h61.2c9.9 0 18-8.1 18-18s-8.1-18-18-18H18c-9.9 0-18 8.1-18 18V449c0 9.9 8.1 18 18 18s18-8.1 18-18V381.4c44 72.7 124 121.4 215.3 121.4c119.4 0 219.4-83.3 245-194.9c2.5-10.8-6.1-20.7-17.2-20.7c-8.9 0-16.4 6.4-18.5 15l.1 .1zm-157-131.3c-.9-1.6-2.6-2.5-4.4-2.5l-85.6-.7c-3.6 0-6.9 1.9-8.7 5c-2.8 4.8-1.1 10.9 3.7 13.7l124.9 72.1c4.8 2.8 10.9 1.1 13.7-3.7c1.8-3.1 1.8-7 0-10.1l-43.4-73.8zm-13.5 50.7c2.1-1.5 4-3.4 5.3-5.8c5-8.6 2-19.6-6.6-24.5s-19.6-2-24.5 6.6c-1.4 2.4-2.2 4.9-2.3 7.5l-47.5-27.4 81.7 .7 41.4 70.4-47.5-27.4zm-14.1-8.1a7.7 7.7 0 1 1 7.7-13.3 7.7 7.7 0 1 1 -7.7 13.3zM192 236.3c-2.4-1.4-5.6-.6-7 1.9s-.6 5.6 1.9 7l106.7 61.6c2.4 1.4 5.6 .6 7-1.9s.6-5.6-1.9-7l20.5-35.6-8.9-5.1-20.5 35.6-22.2-12.8 20.5-35.6-8.9-5.1-20.5 35.6L232 259.4l20.5-35.6-8.9-5.1-20.5 35.6-22.2-12.8 20.5-35.6-8.9-5.1L192 236.3zm-16.9 13.9c-2.4-1.4-5.6-.6-7 1.9s-.6 5.6 1.9 7l120 69.3c2.4 1.4 5.6 .6 7-1.9s.6-5.6-1.9-7l-120-69.3zm-16.9 13.9c-2.4-1.4-5.6-.6-7 1.9s-.6 5.6 1.9 7l133.3 77c2.4 1.4 5.6 .6 7-1.9s.6-5.6-1.9-7l-133.3-77z" />
</svg>