<svg xmlns="http://www.w3.org/2000/svg" viewBox="0 0 512 512"><path d="M41.8 200.5c22.9-94.4 108-164.6 209.5-164.6c79.8 0 149.5 43.3 186.7 107.8h-61c-9.9 0-18 8.1-18 18s8.1 18 18 18H484.9c9.9 0 18-8.1 18-18V53.9c0-9.9-8.1-18-18-18s-18 8.1-18 18v68C422.9 48.8 342.8 0 251.3 0C131.8 0 31.8 83.3 6.2 194.9c-2.5 10.8 6.1 20.7 17.2 20.7c8.9 0 16.4-6.4 18.5-15h-.1zm419.1 102c-22.9 94.3-108 164.4-209.5 164.4c-79.8 0-149.5-43.3-186.7-107.8h61.2c9.9 0 18-8.1 18-18s-8.1-18-18-18H18c-9.9 0-18 8.1-18 18V449c0 9.9 8.1 18 18 18s18-8.1 18-18V381.4C80 454.1 160 502.9 251.3 502.9c119.5 0 219.5-83.3 245.1-194.9c2.5-10.8-6.1-20.7-17.2-20.7c-8.9 0-16.4 6.4-18.5 15l.1 .1zm-125.8-90L218.9 145.4c-12.1-7-27.5-3-34.3 8.9l-47 81.4c-6.9 11.9-2.6 27.2 9.5 34.2l116.2 67.1c12.1 7 27.5 3 34.3-8.9l47-81.4c6.9-11.9 2.6-27.2-9.5-34.2zM213.6 154.6l116.2 67.1c7 4 9.4 12.9 5.5 19.7l-6 10.4L187.8 170.1l6-10.4c4-6.9 12.8-9.1 19.8-5.1l-.1 0zm54.9 173.2L152.3 260.8c-7-4-9.4-12.9-5.5-19.7l32.1-55.6 141.4 81.6-32.1 55.6c-4 6.9-12.8 9.1-19.8 5.1l.1 0zm-38.3-77.3L179 221l-5.1 8.9L225 259.4l5.1-8.9zm-31.7 7.1L168 240.1l-5.1 8.9 30.5 17.6 5.1-8.9z"/></svg>