<svg xmlns="http://www.w3.org/2000/svg" viewBox="0 0 512 512"><path d="M255.9 512a256 256 0 1 0 .3-512 256 256 0 1 0 -.3 512zM114.7 426.3c39.8-32.8 89.3-51.1 141.4-51.1s101.6 18 141.4 51.1C359 458.1 310 477.4 256.1 477.4s-102.9-19.2-141.4-51.1zM255.9 34.6C378 34.6 477.4 134 477.4 256.1c0 56.5-21.3 107.8-56.2 146.8c-46.2-39.3-103.9-61.1-165.3-61.1s-119.1 21.6-165.3 61.1c-34.9-39-56.2-90.6-56.2-146.8C34.6 134 134 34.6 255.9 34.6zm0 258.7a99.6 99.6 0 1 0 0-199.2 99.6 99.6 0 1 0 0 199.2zm0-33.1a66.2 66.2 0 1 1 0-132.4 66.2 66.2 0 1 1 0 132.4z"/></svg>